<?xml version="1.0" encoding="UTF-8"?>
<svg width="16px" height="16px" viewBox="0 0 16 16" version="1.1" xmlns="http://www.w3.org/2000/svg" xmlns:xlink="http://www.w3.org/1999/xlink">
    <title>Icon/Client/Assets</title>
    <g id="Icon/Client/Assets" stroke="none" stroke-width="1" fill="none" fill-rule="evenodd">
        <path d="M14.625,6 C15.3843915,6 16,6.61560847 16,7.375 L16,14.625 C16,15.3843915 15.3843915,16 14.625,16 L7.375,16 C6.61560847,16 6,15.3843915 6,14.625 L6,7.375 C6,6.61560847 6.61560847,6 7.375,6 L14.625,6 Z M14,10 L8,10 L8,14 L14,14 L14,10 Z M14,0 C15.1045695,0 16,0.8954305 16,2 L16,5 L14,5 L14,2 L2,2 L2,11 L5,11 L5,13 L2,13 C0.8954305,13 0,12.1045695 0,11 L0,2 C0,0.8954305 0.8954305,0 2,0 L14,0 Z M8,7 C7.44771525,7 7,7.44771525 7,8 C7,8.55228475 7.44771525,9 8,9 C8.55228475,9 9,8.55228475 9,8 C9,7.44771525 8.55228475,7 8,7 Z" id="L1" fill="rgba(182, 183, 195, 1)"></path>
    </g>
</svg>